<?xml version="1.0" encoding="UTF-8" standalone="no"?>
<svg
   viewBox="0 0 24 24"
   version="1.1"
   id="svg1"
   xmlns="http://www.w3.org/2000/svg"
   xmlns:svg="http://www.w3.org/2000/svg">
  <defs
     id="defs1" />
  <path
     d="M 7.3940555,7.8116306 7.9653496,7.2403365 8.8182671,8.0972776 9.6711851,7.2443597 10.238456,7.8116306 9.3855381,8.6645484 10.242479,9.5174663 9.6711851,10.08876 8.8182671,9.2318193 7.9653496,10.084737 7.3980787,9.5174663 8.2509966,8.6645484 7.3940555,7.8116306 M 6.0020291,2.6297521 c 1.7782534,0 3.218558,0.7201524 3.218558,1.609279 0,0.8891267 -1.4403046,1.609279 -3.218558,1.609279 -1.7782533,0 -3.218558,-0.7201523 -3.218558,-1.609279 0,-0.8891266 1.4403047,-1.609279 3.218558,-1.609279 m -3.218558,2.4139185 c 0,0.8891267 1.4403047,1.6092791 3.218558,1.6092791 1.7782534,0 3.218558,-0.7201524 3.218558,-1.6092791 v 1.2391449 l -0.40232,-0.032186 c -1.0420078,0 -1.9311345,0.6598044 -2.2690831,1.5851398 l -0.5471549,0.02414 c -1.7782533,0 -3.218558,-0.7201523 -3.218558,-1.609279 V 5.0436706 m 0,2.0115988 c 0,0.8891267 1.4403047,1.609279 3.218558,1.609279 h 0.4023198 c 0,0.4224358 0.1086263,0.8207323 0.3017398,1.1667277 l -0.7040596,0.040232 c -1.7782533,0 -3.218558,-0.7201528 -3.218558,-1.6092794 z"
     id="path1"
     style="fill:#a00707;fill-opacity:1;stroke-width:0.40232" />
</svg>
