<svg version="1.1" id="Layer_1" xmlns="http://www.w3.org/2000/svg" xmlns:xlink="http://www.w3.org/1999/xlink" x="0px" y="0px"
	 width="100%" viewBox="0 0 193 193" enable-background="new 0 0 193 193" xml:space="preserve">

<path fill="#0D2AA4" opacity="1.000000" stroke="none" 
	d="
M101.622658,18.489464 
	C132.101135,20.821388 154.752670,35.003548 169.186295,61.391346 
	C196.536667,111.393822 161.805389,174.962189 105.095589,179.155167 
	C61.872421,182.350983 25.788029,154.170914 18.353233,111.413826 
	C10.533598,66.443527 45.168575,22.123533 90.703011,18.868809 
	C94.183739,18.620012 97.680771,18.599478 101.622658,18.489464 
M95.632675,160.836227 
	C102.682671,159.875641 109.992012,159.787399 116.731934,157.783783 
	C133.961807,152.661682 146.661087,141.424210 155.059982,125.684753 
	C159.454056,117.450264 156.197342,112.448944 147.127991,111.809586 
	C145.129562,111.668716 143.162323,111.085388 139.874039,110.455513 
	C142.402267,107.783585 143.770569,105.928352 145.524323,104.571152 
	C148.938873,101.928688 152.586945,99.589836 156.105042,97.078651 
	C158.949173,95.048531 162.441940,92.997345 161.301331,88.887924 
	C160.060822,84.418633 155.670868,84.991722 152.118607,84.557961 
	C151.472366,84.479050 150.794052,84.632637 150.133499,84.705620 
	C135.833801,86.285530 122.564095,90.919518 110.799332,99.148262 
	C106.679893,102.029572 102.864410,105.909523 100.158653,110.133255 
	C94.084641,119.614899 98.684036,128.524124 109.821762,130.044357 
	C112.453613,130.403580 115.145889,130.635605 117.673195,131.387344 
	C125.965225,133.853760 127.960945,141.102615 122.253311,147.569443 
	C117.648094,152.787201 111.597313,155.579025 105.003319,156.904358 
	C98.393578,158.232864 91.635490,158.823273 84.541977,159.791870 
	C88.154747,160.162613 91.435951,160.499344 95.632675,160.836227 
M79.304047,58.235039 
	C87.086044,57.824398 94.865761,57.217339 102.651466,57.127083 
	C104.883545,57.101204 108.540306,58.071945 109.035484,59.472538 
	C109.730659,61.438778 108.786705,64.845558 107.300835,66.557121 
	C103.181419,71.302200 98.682373,75.804771 93.856438,79.831635 
	C83.161942,88.755333 75.013245,99.462044 69.707840,112.316452 
	C68.612549,114.970222 67.869591,117.769409 66.964249,120.501572 
	C89.706009,89.571617 120.133064,73.198502 159.159714,69.174805 
	C157.236023,67.520699 155.998108,65.648514 154.381073,65.225510 
	C150.395615,64.182938 146.237534,63.796200 142.145950,63.164635 
	C139.611237,62.773388 137.071182,62.416618 134.533524,62.044369 
	C135.777618,59.659985 137.007553,57.268032 138.275894,54.896610 
	C138.587250,54.314472 139.041916,53.810890 139.400345,53.251736 
	C143.356400,47.080372 141.924637,42.671814 134.652390,42.047245 
	C126.638229,41.358959 118.451279,41.965862 110.397110,42.668102 
	C102.808395,43.329758 95.325958,45.401737 87.738693,45.834011 
	C80.386566,46.252888 78.190865,42.120758 81.403259,35.556564 
	C81.866226,34.610531 82.289879,33.645252 82.731720,32.688881 
	C82.287605,32.345940 81.843498,32.002998 81.399384,31.660057 
	C78.095490,35.579365 74.307114,39.192169 71.591934,43.483925 
	C66.467430,51.583961 68.954018,56.450554 79.304047,58.235039 
z"/>
<path fill="#FCFCFE" opacity="1.000000" stroke="none" 
	d="
M95.174911,160.836151 
	C91.435951,160.499344 88.154747,160.162613 84.541977,159.791870 
	C91.635490,158.823273 98.393578,158.232864 105.003319,156.904358 
	C111.597313,155.579025 117.648094,152.787201 122.253311,147.569443 
	C127.960945,141.102615 125.965225,133.853760 117.673195,131.387344 
	C115.145889,130.635605 112.453613,130.403580 109.821762,130.044357 
	C98.684036,128.524124 94.084641,119.614899 100.158653,110.133255 
	C102.864410,105.909523 106.679893,102.029572 110.799332,99.148262 
	C122.564095,90.919518 135.833801,86.285530 150.133499,84.705620 
	C150.794052,84.632637 151.472366,84.479050 152.118607,84.557961 
	C155.670868,84.991722 160.060822,84.418633 161.301331,88.887924 
	C162.441940,92.997345 158.949173,95.048531 156.105042,97.078651 
	C152.586945,99.589836 148.938873,101.928688 145.524323,104.571152 
	C143.770569,105.928352 142.402267,107.783585 139.874039,110.455513 
	C143.162323,111.085388 145.129562,111.668716 147.127991,111.809586 
	C156.197342,112.448944 159.454056,117.450264 155.059982,125.684753 
	C146.661087,141.424210 133.961807,152.661682 116.731934,157.783783 
	C109.992012,159.787399 102.682671,159.875641 95.174911,160.836151 
z"/>
<path fill="#FBFBFD" opacity="1.000000" stroke="none" 
	d="
M78.889572,58.196846 
	C68.954018,56.450554 66.467430,51.583961 71.591934,43.483925 
	C74.307114,39.192169 78.095490,35.579365 81.399384,31.660057 
	C81.843498,32.002998 82.287605,32.345940 82.731720,32.688881 
	C82.289879,33.645252 81.866226,34.610531 81.403259,35.556564 
	C78.190865,42.120758 80.386566,46.252888 87.738693,45.834011 
	C95.325958,45.401737 102.808395,43.329758 110.397110,42.668102 
	C118.451279,41.965862 126.638229,41.358959 134.652390,42.047245 
	C141.924637,42.671814 143.356400,47.080372 139.400345,53.251736 
	C139.041916,53.810890 138.587250,54.314472 138.275894,54.896610 
	C137.007553,57.268032 135.777618,59.659985 134.533524,62.044373 
	C137.071182,62.416618 139.611237,62.773388 142.145950,63.164635 
	C146.237534,63.796200 150.395615,64.182938 154.381073,65.225510 
	C155.998108,65.648514 157.236023,67.520699 159.159714,69.174805 
	C120.133064,73.198502 89.706009,89.571617 66.964249,120.501572 
	C67.869591,117.769409 68.612549,114.970222 69.707840,112.316452 
	C75.013245,99.462044 83.161942,88.755333 93.856438,79.831635 
	C98.682373,75.804771 103.181419,71.302200 107.300835,66.557121 
	C108.786705,64.845558 109.730659,61.438778 109.035484,59.472538 
	C108.540306,58.071945 104.883545,57.101204 102.651466,57.127083 
	C94.865761,57.217339 87.086044,57.824398 78.889572,58.196846 
z"/>
</svg>